# xmcd
#
# Track frame offsets: 
#        150
#        23996
#        52717
#        68838
#        93508
#        111802
#        138423
#        158294
#        181621
#        212442
#        236063
#        264859
#        289229
#        304449
#
# Disc length: 4428 seconds
#
# Revision: 0
# Processed by: cddbd v1.5.2PL0 Copyright (c) Steve Scherf et al.
# Submitted via: ExactAudioCopy v0.99pb5
#
DISCID=b5114a0e
DTITLE=Jaromi - Blubrane bluesy zez Pyrlandii
DYEAR=2010
DGENRE=Blues
TTITLE0=01 - Dum wew Koscianie
TTITLE1=02 - Zielune papcie 
TTITLE2=03 - Boogie Woogie Cyntryfugi 
TTITLE3=04 - Nojd³ym na gymyli 
TTITLE4=05 - Ktu nabroiu³ 
TTITLE5=06 - A jo kce na bejmach nynaæ 
TTITLE6=07 - Frechowno baba 
TTITLE7=08 - Blues dynuncjanta 
TTITLE8=09 - Nie byde fifnym szarankiym 
TTITLE9=10 - Gdy bejmy mi wybulum
TTITLE10=11 - Maslunka blues 
TTITLE11=12 - Pyrki dla Pyn¿yrki
TTITLE12=13 - Czas tero na piwko 
TTITLE13=14 - £ej, coby aby
EXTD=
EXTT0=
EXTT1=
EXTT2=
EXTT3=
EXTT4=
EXTT5=
EXTT6=
EXTT7=
EXTT8=
EXTT9=
EXTT10=
EXTT11=
EXTT12=
EXTT13=
PLAYORDER=
